0
SECTION
2
HEADER
9
$INSUNITS
70
4
0
ENDSEC
0
SECTION
2
TABLES
0
TABLE
2
LTYPE
0
LTYPE
72
65
70
0
2
CONTINUOUS
3
______
73
0
40
0
0
LTYPE
72
65
70
0
2
DASHED
3
_ _ _ 
73
2
40
7.5
49
5
49
-2.5
0
LTYPE
72
65
70
0
2
DOTTED
3
. . . 
73
2
40
1.5
49
0.5
49
-1
0
ENDTAB
0
TABLE
2
LAYER
0
ENDTAB
0
ENDSEC
0
SECTION
2
ENTITIES
0
LINE
8
0
6
CONTINUOUS
10
189
20
-158.5
11
189
21
-88.25
0
LINE
8
0
6
CONTINUOUS
10
191
20
-86.25
11
265.25
21
-86.25
0
LINE
8
0
6
CONTINUOUS
10
267.25
20
-88.25
11
267.25
21
-158.5
0
LINE
8
0
6
CONTINUOUS
10
265.25
20
-160.5
11
191
21
-160.5
0
ARC
8
0
6
CONTINUOUS
10
191
20
-88.25
40
2
50
90
51
180
0
ARC
8
0
6
CONTINUOUS
10
265.25
20
-88.25
40
2
50
0
51
90
0
ARC
8
0
6
CONTINUOUS
10
265.25
20
-158.5
40
2
50
270
51
0
0
ARC
8
0
6
CONTINUOUS
10
191
20
-158.5
40
2
50
180
51
270
0
ENDSEC
0
EOF