0
SECTION
2
HEADER
9
$INSUNITS
70
4
0
ENDSEC
0
SECTION
2
TABLES
0
TABLE
2
LTYPE
0
LTYPE
72
65
70
0
2
CONTINUOUS
3
______
73
0
40
0
0
LTYPE
72
65
70
0
2
DASHED
3
_ _ _ 
73
2
40
7.5
49
5
49
-2.5
0
LTYPE
72
65
70
0
2
DOTTED
3
. . . 
73
2
40
1.5
49
0.5
49
-1
0
ENDTAB
0
TABLE
2
LAYER
0
ENDTAB
0
ENDSEC
0
SECTION
2
ENTITIES
0
LINE
8
0
6
CONTINUOUS
10
187.5
20
-162
11
187.5
21
-157
0
LINE
8
0
6
CONTINUOUS
10
187.5
20
-140
11
187.5
21
-139.25
0
LINE
8
0
6
CONTINUOUS
10
187.5
20
-122.25
11
187.5
21
-121.5
0
LINE
8
0
6
CONTINUOUS
10
187.5
20
-104.5
11
187.5
21
-103.75
0
LINE
8
0
6
CONTINUOUS
10
187.5
20
-86.75
11
187.5
21
-84.75
0
LINE
8
0
6
CONTINUOUS
10
187.5
20
-84.75
11
265.5
21
-84.75
0
LINE
8
0
6
CONTINUOUS
10
268.75
20
-151
11
268.75
21
-162
0
LINE
8
0
6
CONTINUOUS
10
268.75
20
-133.25
11
268.75
21
-137
0
LINE
8
0
6
CONTINUOUS
10
268.75
20
-115.5
11
268.75
21
-119.25
0
LINE
8
0
6
CONTINUOUS
10
268.75
20
-97.75
11
268.75
21
-101.5
0
LINE
8
0
6
CONTINUOUS
10
268.75
20
-162
11
187.5
21
-162
0
LINE
8
0
6
CONTINUOUS
10
200.75
20
-143
11
200.75
21
-140
0
LINE
8
0
6
CONTINUOUS
10
200.75
20
-140
11
187.5
21
-140
0
LINE
8
0
6
CONTINUOUS
10
200.75
20
-125.25
11
200.75
21
-122.25
0
LINE
8
0
6
CONTINUOUS
10
200.75
20
-122.25
11
187.5
21
-122.25
0
LINE
8
0
6
CONTINUOUS
10
200.75
20
-107.5
11
200.75
21
-104.5
0
LINE
8
0
6
CONTINUOUS
10
200.75
20
-104.5
11
187.5
21
-104.5
0
LINE
8
0
6
CONTINUOUS
10
200.75
20
-89.75
11
200.75
21
-86.75
0
LINE
8
0
6
CONTINUOUS
10
200.75
20
-86.75
11
187.5
21
-86.75
0
LINE
8
0
6
CONTINUOUS
10
187.5
20
-157
11
263.25
21
-157
0
LINE
8
0
6
CONTINUOUS
10
200.75
20
-143
11
246.75
21
-143
0
LINE
8
0
6
CONTINUOUS
10
187.5
20
-139.25
11
263.25
21
-139.25
0
LINE
8
0
6
CONTINUOUS
10
200.75
20
-125.25
11
246.75
21
-125.25
0
LINE
8
0
6
CONTINUOUS
10
187.5
20
-121.5
11
263.25
21
-121.5
0
LINE
8
0
6
CONTINUOUS
10
200.75
20
-107.5
11
246.75
21
-107.5
0
LINE
8
0
6
CONTINUOUS
10
187.5
20
-103.75
11
263.25
21
-103.75
0
LINE
8
0
6
CONTINUOUS
10
200.75
20
-89.75
11
246.75
21
-89.75
0
LINE
8
0
6
CONTINUOUS
10
263.25
20
-157
11
263.25
21
-143
0
LINE
8
0
6
CONTINUOUS
10
263.25
20
-143
11
260.75
21
-143
0
LINE
8
0
6
CONTINUOUS
10
263.25
20
-139.25
11
263.25
21
-125.25
0
LINE
8
0
6
CONTINUOUS
10
263.25
20
-125.25
11
260.75
21
-125.25
0
LINE
8
0
6
CONTINUOUS
10
263.25
20
-121.5
11
263.25
21
-107.5
0
LINE
8
0
6
CONTINUOUS
10
263.25
20
-107.5
11
260.75
21
-107.5
0
LINE
8
0
6
CONTINUOUS
10
263.25
20
-103.75
11
263.25
21
-89.75
0
LINE
8
0
6
CONTINUOUS
10
263.25
20
-89.75
11
260.75
21
-89.75
0
LINE
8
0
6
CONTINUOUS
10
265.5
20
-151
11
268.75
21
-151
0
LINE
8
0
6
CONTINUOUS
10
268.75
20
-137
11
265.5
21
-137
0
LINE
8
0
6
CONTINUOUS
10
265.5
20
-137
11
265.5
21
-151
0
LINE
8
0
6
CONTINUOUS
10
265.5
20
-133.25
11
268.75
21
-133.25
0
LINE
8
0
6
CONTINUOUS
10
268.75
20
-119.25
11
265.5
21
-119.25
0
LINE
8
0
6
CONTINUOUS
10
265.5
20
-119.25
11
265.5
21
-133.25
0
LINE
8
0
6
CONTINUOUS
10
265.5
20
-115.5
11
268.75
21
-115.5
0
LINE
8
0
6
CONTINUOUS
10
268.75
20
-101.5
11
265.5
21
-101.5
0
LINE
8
0
6
CONTINUOUS
10
265.5
20
-101.5
11
265.5
21
-115.5
0
LINE
8
0
6
CONTINUOUS
10
265.5
20
-97.75
11
268.75
21
-97.75
0
LINE
8
0
6
CONTINUOUS
10
265.5
20
-84.75
11
265.5
21
-97.75
0
LINE
8
0
6
CONTINUOUS
10
260.75
20
-143
11
260.75
21
-140
0
LINE
8
0
6
CONTINUOUS
10
260.75
20
-140
11
246.75
21
-140
0
LINE
8
0
6
CONTINUOUS
10
246.75
20
-140
11
246.75
21
-143
0
LINE
8
0
6
CONTINUOUS
10
260.75
20
-125.25
11
260.75
21
-122.25
0
LINE
8
0
6
CONTINUOUS
10
260.75
20
-122.25
11
246.75
21
-122.25
0
LINE
8
0
6
CONTINUOUS
10
246.75
20
-122.25
11
246.75
21
-125.25
0
LINE
8
0
6
CONTINUOUS
10
260.75
20
-107.5
11
260.75
21
-104.5
0
LINE
8
0
6
CONTINUOUS
10
260.75
20
-104.5
11
246.75
21
-104.5
0
LINE
8
0
6
CONTINUOUS
10
246.75
20
-104.5
11
246.75
21
-107.5
0
LINE
8
0
6
CONTINUOUS
10
260.75
20
-89.75
11
260.75
21
-86.75
0
LINE
8
0
6
CONTINUOUS
10
260.75
20
-86.75
11
246.75
21
-86.75
0
LINE
8
0
6
CONTINUOUS
10
246.75
20
-86.75
11
246.75
21
-89.75
0
ENDSEC
0
EOF